<?xml version="1.0" encoding="UTF-8"?>
<svg xmlns="http://www.w3.org/2000/svg" version="1.1" width="300" height="300" viewBox="0 0 300 300"><rect x="0" y="0" width="300" height="300" fill="#ffffff"/><g transform="scale(5.66)"><g transform="translate(0,0)"><path fill-rule="evenodd" d="M8 0L8 3L9 3L9 5L8 5L8 9L7 9L7 8L6 8L6 9L7 9L7 10L5 10L5 11L8 11L8 9L10 9L10 10L14 10L14 9L13 9L13 8L14 8L14 7L15 7L15 9L16 9L16 10L17 10L17 6L18 6L18 11L19 11L19 9L20 9L20 11L21 11L21 10L23 10L23 8L24 8L24 11L22 11L22 12L21 12L21 14L17 14L17 13L16 13L16 12L15 12L15 11L12 11L12 12L11 12L11 11L10 11L10 12L9 12L9 13L7 13L7 12L5 12L5 13L7 13L7 14L4 14L4 17L2 17L2 16L3 16L3 15L2 15L2 14L3 14L3 13L4 13L4 12L3 12L3 11L4 11L4 9L5 9L5 8L2 8L2 14L1 14L1 13L0 13L0 15L1 15L1 16L0 16L0 20L1 20L1 19L3 19L3 18L4 18L4 21L0 21L0 23L2 23L2 25L1 25L1 24L0 24L0 25L1 25L1 26L0 26L0 30L1 30L1 31L0 31L0 33L1 33L1 34L0 34L0 35L1 35L1 34L2 34L2 32L3 32L3 31L4 31L4 30L6 30L6 31L7 31L7 32L4 32L4 33L3 33L3 34L4 34L4 33L7 33L7 34L5 34L5 36L4 36L4 35L2 35L2 36L0 36L0 37L2 37L2 38L0 38L0 41L1 41L1 42L0 42L0 43L1 43L1 44L3 44L3 45L4 45L4 44L3 44L3 43L8 43L8 44L6 44L6 45L8 45L8 46L9 46L9 45L8 45L8 44L9 44L9 43L11 43L11 41L10 41L10 40L11 40L11 39L9 39L9 41L10 41L10 42L9 42L9 43L8 43L8 42L6 42L6 41L8 41L8 40L6 40L6 41L5 41L5 40L4 40L4 41L3 41L3 43L2 43L2 40L1 40L1 39L4 39L4 37L5 37L5 36L6 36L6 37L8 37L8 38L9 38L9 37L10 37L10 35L11 35L11 37L12 37L12 36L15 36L15 34L16 34L16 36L17 36L17 39L16 39L16 37L15 37L15 39L14 39L14 40L15 40L15 39L16 39L16 40L18 40L18 41L19 41L19 40L20 40L20 41L21 41L21 42L19 42L19 43L21 43L21 42L22 42L22 41L21 41L21 39L22 39L22 36L21 36L21 37L20 37L20 34L21 34L21 33L20 33L20 34L19 34L19 33L18 33L18 32L17 32L17 33L16 33L16 32L15 32L15 34L14 34L14 31L19 31L19 30L20 30L20 29L18 29L18 28L17 28L17 29L16 29L16 30L15 30L15 29L14 29L14 27L15 27L15 28L16 28L16 27L18 27L18 26L19 26L19 27L20 27L20 26L22 26L22 27L21 27L21 28L22 28L22 30L21 30L21 31L20 31L20 32L21 32L21 31L22 31L22 30L23 30L23 33L22 33L22 35L23 35L23 33L24 33L24 35L25 35L25 36L26 36L26 37L23 37L23 38L24 38L24 39L23 39L23 40L24 40L24 41L23 41L23 43L22 43L22 47L21 47L21 45L20 45L20 44L18 44L18 45L17 45L17 44L15 44L15 46L14 46L14 48L16 48L16 49L14 49L14 50L13 50L13 48L11 48L11 47L12 47L12 46L13 46L13 45L11 45L11 47L10 47L10 49L9 49L9 48L8 48L8 51L9 51L9 52L10 52L10 51L11 51L11 52L12 52L12 53L14 53L14 51L15 51L15 50L16 50L16 52L15 52L15 53L18 53L18 51L19 51L19 50L16 50L16 49L17 49L17 48L16 48L16 47L17 47L17 46L18 46L18 49L20 49L20 50L21 50L21 48L22 48L22 50L23 50L23 48L24 48L24 51L26 51L26 50L27 50L27 51L28 51L28 53L31 53L31 52L33 52L33 53L36 53L36 52L38 52L38 53L39 53L39 52L41 52L41 50L45 50L45 51L46 51L46 50L45 50L45 49L49 49L49 50L47 50L47 52L45 52L45 53L49 53L49 52L50 52L50 53L51 53L51 52L52 52L52 51L51 51L51 52L50 52L50 50L51 50L51 48L52 48L52 46L53 46L53 44L51 44L51 48L50 48L50 45L49 45L49 44L50 44L50 41L51 41L51 42L52 42L52 40L53 40L53 39L51 39L51 38L50 38L50 39L51 39L51 40L49 40L49 39L48 39L48 40L49 40L49 41L48 41L48 42L49 42L49 43L48 43L48 44L47 44L47 43L46 43L46 42L47 42L47 39L46 39L46 38L45 38L45 36L46 36L46 37L47 37L47 38L49 38L49 37L51 37L51 36L52 36L52 35L51 35L51 33L52 33L52 34L53 34L53 33L52 33L52 32L53 32L53 31L52 31L52 32L50 32L50 35L51 35L51 36L49 36L49 35L48 35L48 36L47 36L47 35L45 35L45 34L47 34L47 33L45 33L45 31L46 31L46 32L47 32L47 31L46 31L46 30L47 30L47 29L48 29L48 30L49 30L49 31L51 31L51 30L53 30L53 29L51 29L51 28L49 28L49 24L50 24L50 25L51 25L51 24L50 24L50 23L52 23L52 22L53 22L53 20L52 20L52 22L50 22L50 21L51 21L51 20L50 20L50 19L51 19L51 17L52 17L52 18L53 18L53 17L52 17L52 16L53 16L53 15L52 15L52 14L53 14L53 13L52 13L52 14L50 14L50 15L49 15L49 12L50 12L50 13L51 13L51 12L52 12L52 10L53 10L53 8L50 8L50 9L51 9L51 10L50 10L50 11L49 11L49 12L48 12L48 13L47 13L47 14L46 14L46 13L45 13L45 12L44 12L44 9L48 9L48 8L44 8L44 7L45 7L45 6L44 6L44 7L43 7L43 3L44 3L44 4L45 4L45 3L44 3L44 1L43 1L43 0L42 0L42 1L41 1L41 0L39 0L39 1L38 1L38 0L37 0L37 1L38 1L38 2L39 2L39 1L40 1L40 3L41 3L41 4L39 4L39 3L38 3L38 4L39 4L39 5L37 5L37 6L36 6L36 5L35 5L35 4L36 4L36 3L37 3L37 2L36 2L36 0L35 0L35 1L34 1L34 0L32 0L32 1L34 1L34 2L32 2L32 3L31 3L31 5L32 5L32 7L33 7L33 5L32 5L32 4L33 4L33 3L34 3L34 5L35 5L35 6L34 6L34 7L35 7L35 6L36 6L36 7L37 7L37 6L38 6L38 7L39 7L39 8L44 8L44 9L42 9L42 10L43 10L43 12L44 12L44 13L45 13L45 14L43 14L43 13L41 13L41 12L42 12L42 11L41 11L41 10L38 10L38 9L37 9L37 8L36 8L36 9L35 9L35 8L34 8L34 9L35 9L35 10L34 10L34 11L33 11L33 14L31 14L31 13L32 13L32 12L31 12L31 13L30 13L30 12L29 12L29 13L30 13L30 16L27 16L27 15L29 15L29 14L27 14L27 13L25 13L25 12L28 12L28 11L30 11L30 10L31 10L31 11L32 11L32 10L31 10L31 9L29 9L29 8L31 8L31 6L30 6L30 2L31 2L31 0L29 0L29 1L30 1L30 2L28 2L28 0L27 0L27 1L26 1L26 0L23 0L23 2L22 2L22 1L21 1L21 0L20 0L20 1L17 1L17 0L15 0L15 1L12 1L12 2L10 2L10 1L11 1L11 0ZM16 1L16 2L15 2L15 3L13 3L13 2L12 2L12 3L11 3L11 4L10 4L10 5L9 5L9 8L10 8L10 6L11 6L11 8L12 8L12 6L11 6L11 4L12 4L12 3L13 3L13 5L14 5L14 6L13 6L13 7L14 7L14 6L15 6L15 7L16 7L16 6L17 6L17 5L16 5L16 3L17 3L17 1ZM20 1L20 2L21 2L21 1ZM24 1L24 2L25 2L25 1ZM26 2L26 3L23 3L23 4L28 4L28 2ZM35 2L35 3L36 3L36 2ZM41 2L41 3L43 3L43 2ZM18 3L18 6L19 6L19 8L23 8L23 7L24 7L24 5L23 5L23 7L22 7L22 3L20 3L20 4L21 4L21 5L19 5L19 3ZM15 5L15 6L16 6L16 5ZM25 5L25 8L28 8L28 5ZM39 5L39 7L40 7L40 5ZM20 6L20 7L21 7L21 6ZM26 6L26 7L27 7L27 6ZM29 6L29 7L30 7L30 6ZM41 6L41 7L42 7L42 6ZM32 8L32 9L33 9L33 8ZM0 9L0 10L1 10L1 9ZM26 9L26 11L27 11L27 10L28 10L28 9ZM37 10L37 11L38 11L38 14L37 14L37 15L36 15L36 14L34 14L34 15L36 15L36 16L37 16L37 18L39 18L39 17L38 17L38 16L40 16L40 17L41 17L41 16L42 16L42 17L43 17L43 18L40 18L40 19L42 19L42 20L39 20L39 19L37 19L37 20L38 20L38 21L37 21L37 22L38 22L38 23L39 23L39 25L38 25L38 26L37 26L37 25L36 25L36 24L37 24L37 23L36 23L36 22L35 22L35 23L36 23L36 24L35 24L35 25L34 25L34 24L33 24L33 23L34 23L34 21L36 21L36 20L34 20L34 18L35 18L35 19L36 19L36 17L35 17L35 16L33 16L33 15L31 15L31 17L32 17L32 18L31 18L31 19L30 19L30 20L28 20L28 18L27 18L27 19L25 19L25 20L23 20L23 21L22 21L22 20L21 20L21 21L20 21L20 22L19 22L19 25L23 25L23 26L24 26L24 24L25 24L25 23L26 23L26 22L25 22L25 23L24 23L24 22L23 22L23 21L25 21L25 20L27 20L27 22L28 22L28 21L29 21L29 23L28 23L28 24L29 24L29 25L30 25L30 24L31 24L31 25L33 25L33 26L31 26L31 27L29 27L29 31L32 31L32 30L35 30L35 31L34 31L34 32L35 32L35 33L36 33L36 32L37 32L37 31L38 31L38 30L39 30L39 31L40 31L40 29L43 29L43 30L42 30L42 31L41 31L41 32L39 32L39 33L38 33L38 34L37 34L37 37L35 37L35 36L36 36L36 35L35 35L35 34L33 34L33 35L35 35L35 36L32 36L32 35L30 35L30 34L29 34L29 33L30 33L30 32L29 32L29 33L28 33L28 35L30 35L30 36L32 36L32 40L33 40L33 39L34 39L34 41L32 41L32 42L31 42L31 40L27 40L27 41L26 41L26 38L27 38L27 39L29 39L29 38L30 38L30 39L31 39L31 38L30 38L30 37L29 37L29 36L27 36L27 35L26 35L26 36L27 36L27 37L26 37L26 38L25 38L25 41L24 41L24 43L25 43L25 44L27 44L27 43L26 43L26 42L27 42L27 41L28 41L28 43L29 43L29 45L30 45L30 44L32 44L32 42L33 42L33 43L34 43L34 44L36 44L36 43L37 43L37 44L39 44L39 43L38 43L38 42L39 42L39 41L41 41L41 42L40 42L40 45L38 45L38 46L37 46L37 45L36 45L36 47L35 47L35 48L34 48L34 47L33 47L33 46L35 46L35 45L33 45L33 46L32 46L32 45L31 45L31 46L32 46L32 47L31 47L31 48L32 48L32 47L33 47L33 49L35 49L35 48L36 48L36 47L37 47L37 50L35 50L35 51L33 51L33 50L32 50L32 51L33 51L33 52L36 52L36 51L37 51L37 50L39 50L39 47L40 47L40 46L41 46L41 48L40 48L40 49L41 49L41 48L43 48L43 49L44 49L44 47L43 47L43 46L41 46L41 45L42 45L42 44L41 44L41 43L44 43L44 42L45 42L45 41L46 41L46 40L43 40L43 39L45 39L45 38L44 38L44 36L45 36L45 35L44 35L44 32L43 32L43 34L42 34L42 35L44 35L44 36L39 36L39 37L38 37L38 34L39 34L39 33L41 33L41 32L42 32L42 31L45 31L45 29L44 29L44 27L43 27L43 26L42 26L42 25L43 25L43 24L45 24L45 23L44 23L44 22L45 22L45 21L44 21L44 20L43 20L43 18L45 18L45 20L46 20L46 22L47 22L47 20L46 20L46 18L47 18L47 19L48 19L48 20L49 20L49 21L50 21L50 20L49 20L49 19L48 19L48 18L47 18L47 16L49 16L49 17L50 17L50 16L51 16L51 15L50 15L50 16L49 16L49 15L46 15L46 14L45 14L45 15L43 15L43 14L42 14L42 15L41 15L41 16L40 16L40 14L39 14L39 13L40 13L40 12L41 12L41 11L40 11L40 12L39 12L39 11L38 11L38 10ZM46 10L46 12L47 12L47 11L48 11L48 10ZM0 11L0 12L1 12L1 11ZM35 11L35 12L34 12L34 13L35 13L35 12L36 12L36 11ZM50 11L50 12L51 12L51 11ZM10 12L10 13L9 13L9 14L8 14L8 15L6 15L6 16L5 16L5 18L8 18L8 19L6 19L6 20L8 20L8 21L6 21L6 22L5 22L5 21L4 21L4 22L2 22L2 23L3 23L3 26L1 26L1 28L2 28L2 27L4 27L4 23L5 23L5 24L9 24L9 23L10 23L10 25L9 25L9 28L11 28L11 29L12 29L12 30L10 30L10 29L8 29L8 30L10 30L10 31L9 31L9 32L8 32L8 33L10 33L10 34L9 34L9 35L8 35L8 36L9 36L9 35L10 35L10 34L12 34L12 35L14 35L14 34L12 34L12 31L13 31L13 30L14 30L14 29L12 29L12 28L11 28L11 27L10 27L10 26L11 26L11 23L10 23L10 22L9 22L9 20L10 20L10 21L11 21L11 22L12 22L12 23L14 23L14 24L12 24L12 26L13 26L13 27L14 27L14 26L15 26L15 27L16 27L16 24L15 24L15 22L12 22L12 21L16 21L16 20L20 20L20 19L21 19L21 18L20 18L20 19L17 19L17 18L18 18L18 17L19 17L19 15L16 15L16 14L15 14L15 13L14 13L14 12L13 12L13 15L14 15L14 20L13 20L13 19L12 19L12 17L13 17L13 16L12 16L12 14L10 14L10 13L11 13L11 12ZM22 12L22 13L23 13L23 12ZM9 14L9 16L6 16L6 17L8 17L8 18L9 18L9 17L10 17L10 16L11 16L11 17L12 17L12 16L11 16L11 15L10 15L10 14ZM21 14L21 15L20 15L20 16L22 16L22 17L23 17L23 16L22 16L22 14ZM24 14L24 16L25 16L25 17L26 17L26 16L25 16L25 14ZM38 14L38 15L39 15L39 14ZM42 15L42 16L43 16L43 15ZM15 16L15 17L16 17L16 18L17 18L17 17L16 17L16 16ZM44 16L44 17L45 17L45 16ZM1 17L1 18L2 18L2 17ZM29 17L29 18L30 18L30 17ZM33 17L33 18L32 18L32 19L33 19L33 18L34 18L34 17ZM10 18L10 19L11 19L11 21L12 21L12 19L11 19L11 18ZM23 18L23 19L24 19L24 18ZM8 19L8 20L9 20L9 19ZM15 19L15 20L16 20L16 19ZM31 20L31 21L32 21L32 22L30 22L30 23L31 23L31 24L32 24L32 22L33 22L33 20ZM42 20L42 22L43 22L43 20ZM17 21L17 23L18 23L18 21ZM21 21L21 24L22 24L22 23L23 23L23 22L22 22L22 21ZM39 21L39 22L41 22L41 21ZM6 22L6 23L8 23L8 22ZM49 22L49 23L48 23L48 24L49 24L49 23L50 23L50 22ZM40 23L40 24L41 24L41 23ZM42 23L42 24L43 24L43 23ZM46 23L46 24L47 24L47 23ZM52 24L52 26L53 26L53 24ZM5 25L5 28L8 28L8 25ZM25 25L25 28L28 28L28 25ZM45 25L45 28L48 28L48 25ZM6 26L6 27L7 27L7 26ZM26 26L26 27L27 27L27 26ZM33 26L33 27L34 27L34 28L33 28L33 29L36 29L36 30L38 30L38 29L37 29L37 28L38 28L38 27L37 27L37 26L36 26L36 27L37 27L37 28L35 28L35 26ZM40 26L40 27L39 27L39 29L40 29L40 28L41 28L41 27L42 27L42 28L43 28L43 27L42 27L42 26ZM46 26L46 27L47 27L47 26ZM22 27L22 28L23 28L23 30L24 30L24 32L25 32L25 33L27 33L27 32L28 32L28 31L27 31L27 30L28 30L28 29L26 29L26 30L25 30L25 29L24 29L24 27ZM31 27L31 28L30 28L30 30L31 30L31 29L32 29L32 27ZM3 28L3 30L2 30L2 29L1 29L1 30L2 30L2 31L3 31L3 30L4 30L4 28ZM6 29L6 30L7 30L7 29ZM17 29L17 30L18 30L18 29ZM49 29L49 30L50 30L50 29ZM10 31L10 32L11 32L11 31ZM25 31L25 32L26 32L26 31ZM32 32L32 33L31 33L31 34L32 34L32 33L33 33L33 32ZM48 33L48 34L49 34L49 33ZM17 34L17 36L18 36L18 37L19 37L19 38L18 38L18 40L19 40L19 38L20 38L20 39L21 39L21 38L20 38L20 37L19 37L19 34ZM40 34L40 35L41 35L41 34ZM6 35L6 36L7 36L7 35ZM48 36L48 37L49 37L49 36ZM33 37L33 38L34 38L34 37ZM41 37L41 38L43 38L43 37ZM52 37L52 38L53 38L53 37ZM5 38L5 39L7 39L7 38ZM36 38L36 39L37 39L37 40L35 40L35 41L34 41L34 42L35 42L35 43L36 43L36 42L38 42L38 41L37 41L37 40L42 40L42 42L44 42L44 41L43 41L43 40L42 40L42 39L39 39L39 38L38 38L38 39L37 39L37 38ZM13 41L13 42L12 42L12 44L13 44L13 42L14 42L14 43L15 43L15 42L16 42L16 41ZM29 41L29 43L31 43L31 42L30 42L30 41ZM17 42L17 43L18 43L18 42ZM43 44L43 45L44 45L44 44ZM16 45L16 46L17 46L17 45ZM25 45L25 48L28 48L28 45ZM45 45L45 48L48 48L48 45ZM19 46L19 47L20 47L20 46ZM23 46L23 47L24 47L24 46ZM26 46L26 47L27 47L27 46ZM29 46L29 48L30 48L30 46ZM38 46L38 47L39 47L39 46ZM46 46L46 47L47 47L47 46ZM49 48L49 49L50 49L50 48ZM11 49L11 50L12 50L12 52L13 52L13 50L12 50L12 49ZM25 49L25 50L26 50L26 49ZM29 49L29 50L30 50L30 52L31 52L31 49ZM20 51L20 53L25 53L25 52L23 52L23 51L22 51L22 52L21 52L21 51ZM42 51L42 52L44 52L44 51ZM0 0L0 7L7 7L7 0ZM1 1L1 6L6 6L6 1ZM2 2L2 5L5 5L5 2ZM46 0L46 7L53 7L53 0ZM47 1L47 6L52 6L52 1ZM48 2L48 5L51 5L51 2ZM0 46L0 53L7 53L7 46ZM1 47L1 52L6 52L6 47ZM2 48L2 51L5 51L5 48Z" fill="#000000"/></g></g></svg>
